<svg xmlns="http://www.w3.org/2000/svg" viewBox="0 0 64 64">
  <path d="M15,21 C3,25 1,44 13,52 C22,55 29,41 24,26 Z" fill="#b3a488" stroke="#2e2a24" stroke-width="1.5"/>
  <path d="M49,21 C61,25 63,44 51,52 C42,55 35,41 40,26 Z" fill="#b3a488" stroke="#2e2a24" stroke-width="1.5"/>
  <circle cx="32" cy="34" r="20" fill="#f8f2e6" stroke="#2e2a24" stroke-width="1.5"/>
  <circle cx="24.5" cy="32" r="3.6" fill="#5f8aa3"/>
  <circle cx="39.5" cy="32" r="3.6" fill="#5f8aa3"/>
  <circle cx="23.3" cy="30.7" r="1" fill="#fff"/>
  <circle cx="38.3" cy="30.7" r="1" fill="#fff"/>
  <ellipse cx="32" cy="41.5" rx="3.2" ry="2.4" fill="#2e2a24"/>
  <path d="M32,44 q0,2.5 -3,3 M32,44 q0,2.5 3,3" stroke="#2e2a24" stroke-width="1.2" stroke-linecap="round" fill="none"/>
  <g transform="translate(9,46) rotate(-25)">
    <ellipse cx="0" cy="0" rx="7" ry="6" fill="#f8f2e6" stroke="#2e2a24" stroke-width="1.5"/>
    <path d="M-5,-5 L-4,-15 L-2,-5 Z" fill="#2e2a24"/>
    <path d="M-1,-6 L0,-16 L1,-6 Z" fill="#2e2a24"/>
    <path d="M2,-5 L4,-15 L5,-5 Z" fill="#2e2a24"/>
  </g>
  <g transform="translate(55,46) rotate(25)">
    <ellipse cx="0" cy="0" rx="7" ry="6" fill="#f8f2e6" stroke="#2e2a24" stroke-width="1.5"/>
    <path d="M-5,-5 L-4,-15 L-2,-5 Z" fill="#2e2a24"/>
    <path d="M-1,-6 L0,-16 L1,-6 Z" fill="#2e2a24"/>
    <path d="M2,-5 L4,-15 L5,-5 Z" fill="#2e2a24"/>
  </g>
</svg>
